<svg width="13" height="23" viewBox="0 0 13 23" fill="none" xmlns="http://www.w3.org/2000/svg">
<path d="M11.1875 5.25H10.4062V0.5625H8.84375V5.25H4.15625V0.5625H2.59375V5.25H1.8125C1.3981 5.25 1.00067 5.41462 0.707646 5.70765C0.41462 6.00067 0.25 6.3981 0.25 6.8125V11.5C0.25255 13.021 0.809175 14.489 1.81574 15.6292C2.8223 16.7695 4.20983 17.504 5.71875 17.6953V22.4375H7.28125V17.6953C8.79017 17.504 10.1777 16.7695 11.1843 15.6292C12.1908 14.489 12.7474 13.021 12.75 11.5V6.8125C12.75 6.3981 12.5854 6.00067 12.2924 5.70765C11.9993 5.41462 11.6019 5.25 11.1875 5.25ZM11.1875 11.5C11.1875 12.7432 10.6936 13.9355 9.81456 14.8146C8.93549 15.6936 7.7432 16.1875 6.5 16.1875C5.2568 16.1875 4.06451 15.6936 3.18544 14.8146C2.30636 13.9355 1.8125 12.7432 1.8125 11.5V6.8125H11.1875V11.5Z" fill="#F8F8F8"/>
</svg>
