<svg width="17" height="25" viewBox="0 0 17 25" fill="none" xmlns="http://www.w3.org/2000/svg">
<path d="M1.46875 10.1562C1.67595 10.1562 1.87466 10.2386 2.02118 10.3851C2.16769 10.5316 2.25 10.7303 2.25 10.9375V12.5C2.25 14.1576 2.90848 15.7473 4.08058 16.9194C5.25268 18.0915 6.8424 18.75 8.5 18.75C10.1576 18.75 11.7473 18.0915 12.9194 16.9194C14.0915 15.7473 14.75 14.1576 14.75 12.5V10.9375C14.75 10.7303 14.8323 10.5316 14.9788 10.3851C15.1253 10.2386 15.324 10.1562 15.5312 10.1562C15.7385 10.1562 15.9372 10.2386 16.0837 10.3851C16.2302 10.5316 16.3125 10.7303 16.3125 10.9375V12.5C16.3125 14.4368 15.5931 16.3045 14.2939 17.7408C12.9947 19.1772 11.2083 20.0798 9.28125 20.2734V23.4375H13.9688C14.176 23.4375 14.3747 23.5198 14.5212 23.6663C14.6677 23.8128 14.75 24.0115 14.75 24.2188C14.75 24.426 14.6677 24.6247 14.5212 24.7712C14.3747 24.9177 14.176 25 13.9688 25H3.03125C2.82405 25 2.62534 24.9177 2.47882 24.7712C2.33231 24.6247 2.25 24.426 2.25 24.2188C2.25 24.0115 2.33231 23.8128 2.47882 23.6663C2.62534 23.5198 2.82405 23.4375 3.03125 23.4375H7.71875V20.2734C5.79169 20.0798 4.00527 19.1772 2.70606 17.7408C1.40685 16.3045 0.687476 14.4368 0.6875 12.5V10.9375C0.6875 10.7303 0.76981 10.5316 0.916323 10.3851C1.06284 10.2386 1.26155 10.1562 1.46875 10.1562Z" fill="#F8F8F8"/>
<path d="M11.625 12.5C11.625 13.3288 11.2958 14.1237 10.7097 14.7097C10.1237 15.2958 9.3288 15.625 8.5 15.625C7.6712 15.625 6.87634 15.2958 6.29029 14.7097C5.70424 14.1237 5.375 13.3288 5.375 12.5V4.6875C5.375 3.8587 5.70424 3.06384 6.29029 2.47779C6.87634 1.89174 7.6712 1.5625 8.5 1.5625C9.3288 1.5625 10.1237 1.89174 10.7097 2.47779C11.2958 3.06384 11.625 3.8587 11.625 4.6875V12.5ZM8.5 0C7.2568 0 6.06451 0.49386 5.18544 1.37294C4.30636 2.25201 3.8125 3.4443 3.8125 4.6875V12.5C3.8125 13.7432 4.30636 14.9355 5.18544 15.8146C6.06451 16.6936 7.2568 17.1875 8.5 17.1875C9.7432 17.1875 10.9355 16.6936 11.8146 15.8146C12.6936 14.9355 13.1875 13.7432 13.1875 12.5V4.6875C13.1875 3.4443 12.6936 2.25201 11.8146 1.37294C10.9355 0.49386 9.7432 0 8.5 0V0Z" fill="#F8F8F8"/>
</svg>
